<svg width="33" height="34" viewBox="0 0 33 34" fill="none" xmlns="http://www.w3.org/2000/svg">
<path fill-rule="evenodd" clip-rule="evenodd" d="M0.216797 6.9258C0.216797 1.21551 7.12079 -1.6442 11.1586 2.39358L25.3162 16.5512L22.0319 19.8355L7.87427 5.67788C6.76248 4.56609 4.8615 5.35351 4.8615 6.9258V26.3338C4.8615 27.9061 6.76249 28.6935 7.87427 27.5817L11.1851 24.2709L14.4694 27.5552L11.1586 30.866C7.12078 34.9038 0.216797 32.0441 0.216797 26.3338V6.9258Z" fill="white"/>
<path fill-rule="evenodd" clip-rule="evenodd" d="M33 26.5937C33 32.304 26.096 35.1637 22.0582 31.126L7.9006 16.9683L11.1849 13.684L25.3425 27.8417C26.4543 28.9534 28.3553 28.166 28.3553 26.5937V7.18576C28.3553 5.61345 26.4543 4.82605 25.3425 5.93783L22.0317 9.24868L18.7474 5.96438L22.0582 2.65352C26.096 -1.38426 33 1.47548 33 7.18576V26.5937Z" fill="white"/>
<style>
    path {
        fill: #1D1D1F;
    }
    @media (prefers-color-scheme: white) {
        rect {
            stroke: #fff;
        }
    }
</style>
</svg>
