<svg width="22" height="14" fill="none" xmlns="http://www.w3.org/2000/svg"><path d="M1.667 14c-.33 0-.608-.112-.831-.336a1.126 1.126 0 01-.336-.83c0-.331.112-.608.336-.831.223-.224.5-.336.83-.336h18.667c.33 0 .608.112.831.336.224.223.336.5.336.83 0 .33-.112.608-.336.831-.223.224-.5.336-.83.336H1.666zm0-5.833c-.33 0-.608-.112-.831-.336A1.126 1.126 0 01.5 7c0-.33.112-.608.336-.832.223-.223.5-.335.83-.335h18.667c.33 0 .608.112.831.335.224.224.336.501.336.832 0 .33-.112.607-.336.83-.223.225-.5.337-.83.337H1.666zm0-5.834c-.33 0-.608-.111-.831-.335A1.13 1.13 0 01.5 1.167C.5.837.612.559.836.335c.223-.223.5-.335.83-.335h18.667c.33 0 .608.112.831.335.224.224.336.501.336.832 0 .33-.112.607-.336.831-.223.224-.5.335-.83.335H1.666z" fill="#1D1D1F"/></svg>