<svg width="62" height="17" fill="none" xmlns="http://www.w3.org/2000/svg"><path d="M8.888.57c-2.347 0-3.744.892-4.724 2.08L3.778.75H.123v15.273h4.19V8.207c0-2.645 1.247-4.19 3.417-4.19 2.11 0 3.09 1.367 3.09 3.952v8.053h4.19V7.553c0-5.23-2.823-6.983-6.122-6.983zM23.564 16.2c4.873 0 8.053-3.09 8.053-7.815 0-4.695-3.18-7.815-8.053-7.815-4.873 0-8.053 3.12-8.053 7.815s3.18 7.815 8.053 7.815zm0-3.417c-2.347 0-3.774-1.813-3.774-4.398s1.427-4.398 3.774-4.398c2.348 0 3.803 1.813 3.803 4.398s-1.456 4.398-3.803 4.398zm12.885 3.239h5.2L47.145.749h-4.398l-3.625 10.994L35.438.749h-4.487l5.498 15.273zm24.862-3.536c-.654 0-.98-.149-.98-.951V6.127c0-3.655-2.467-5.557-6.746-5.557-4.04 0-6.775 1.961-7.072 4.933h4.041c.179-1.13 1.278-1.872 2.912-1.872 1.754 0 2.734.891 2.734 2.258v.743h-3.03c-4.577 0-7.013 1.842-7.013 5.081 0 2.912 2.377 4.487 5.675 4.487 2.377 0 3.922-.98 4.992-2.674-.03 1.456.654 2.496 2.823 2.496h2.14v-3.536h-.476zm-5.11-2.764c-.03 2.08-1.368 3.447-3.567 3.447-1.396 0-2.258-.683-2.258-1.753 0-1.278 1.01-1.99 2.764-1.99h3.06v.296z" fill="#1D1D1F"/></svg>