<svg width="27" height="26" fill="none" xmlns="http://www.w3.org/2000/svg"><path fill-rule="evenodd" clip-rule="evenodd" d="M0 5.136C0 .569 5.521-1.717 8.75 1.512l11.322 11.321-2.627 2.627L6.124 4.138c-.89-.89-2.41-.26-2.41.998v15.52c0 1.257 1.52 1.887 2.41.998l2.647-2.648 2.627 2.627L8.75 24.28C5.521 27.51 0 25.222 0 20.656V5.136z" fill="#1D1D1F"/><path fill-rule="evenodd" clip-rule="evenodd" d="M26.216 20.864c0 4.567-5.52 6.853-8.75 3.624L6.145 13.167 8.77 10.54l11.322 11.322c.889.89 2.409.26 2.409-.998V5.344c0-1.257-1.52-1.887-2.41-.998l-2.647 2.648-2.626-2.627 2.647-2.647c3.23-3.23 8.75-.943 8.75 3.624v15.52z" fill="#1D1D1F"/></svg>