<svg width="98" height="26" fill="none" xmlns="http://www.w3.org/2000/svg"><path fill-rule="evenodd" clip-rule="evenodd" d="M0 5.136C0 .569 5.521-1.717 8.75 1.512l11.322 11.321-2.627 2.627L6.124 4.138c-.89-.89-2.41-.26-2.41.998v15.52c0 1.257 1.52 1.887 2.41.998l2.647-2.648 2.627 2.627L8.75 24.28C5.521 27.51 0 25.222 0 20.656V5.136z" fill="#FAFAFA"/><path fill-rule="evenodd" clip-rule="evenodd" d="M26.216 20.864c0 4.567-5.52 6.853-8.75 3.624L6.145 13.167 8.77 10.54l11.322 11.322c.889.89 2.409.26 2.409-.998V5.344c0-1.257-1.52-1.887-2.41-.998l-2.647 2.648-2.626-2.627 2.647-2.647c3.23-3.23 8.75-.943 8.75 3.624v15.52z" fill="#FAFAFA"/><path d="M44.888 5.57c-2.347 0-3.744.892-4.724 2.08l-.386-1.901h-3.655v15.273h4.19v-7.815c0-2.645 1.247-4.19 3.416-4.19 2.11 0 3.09 1.367 3.09 3.952v8.053h4.19v-8.469c0-5.23-2.822-6.983-6.12-6.983zM59.564 21.2c4.873 0 8.053-3.09 8.053-7.815 0-4.695-3.18-7.815-8.053-7.815-4.873 0-8.053 3.12-8.053 7.815s3.18 7.815 8.053 7.815zm0-3.417c-2.347 0-3.774-1.813-3.774-4.398s1.427-4.397 3.774-4.397 3.803 1.812 3.803 4.397-1.456 4.398-3.803 4.398zm12.884 3.239h5.2l5.498-15.273h-4.398l-3.625 10.994-3.685-10.994h-4.487l5.498 15.273zm24.863-3.536c-.654 0-.98-.149-.98-.951v-5.408c0-3.655-2.467-5.557-6.746-5.557-4.04 0-6.775 1.962-7.072 4.933h4.041c.179-1.13 1.278-1.872 2.912-1.872 1.754 0 2.734.891 2.734 2.258v.743h-3.03c-4.577 0-7.013 1.842-7.013 5.081 0 2.912 2.377 4.487 5.675 4.487 2.377 0 3.922-.98 4.992-2.674-.03 1.456.654 2.496 2.823 2.496h2.14v-3.536h-.476zm-5.11-2.764c-.03 2.08-1.368 3.447-3.567 3.447-1.396 0-2.258-.683-2.258-1.753 0-1.277 1.01-1.99 2.763-1.99H92.2v.296z" fill="#FAFAFA"/></svg>