<svg width="30" height="29" fill="none" xmlns="http://www.w3.org/2000/svg"><path d="M23.669 8.9a.629.629 0 01-.284-.07.448.448 0 01-.212-.249L22.11 6.28l-2.302-1.062a.448.448 0 01-.247-.213.628.628 0 01-.071-.283.63.63 0 01.07-.284.448.448 0 01.248-.212l2.302-1.063L23.173.86a.448.448 0 01.213-.248.629.629 0 01.283-.07c.094 0 .189.023.283.07.095.048.165.13.213.248l1.062 2.302 2.302 1.063c.118.047.2.118.248.212.047.095.071.19.071.284a.628.628 0 01-.07.283.448.448 0 01-.249.213l-2.302 1.062-1.062 2.302a.448.448 0 01-.213.248.629.629 0 01-.283.071zm2.975 10.235a.628.628 0 01-.284-.07.463.463 0 01-.212-.213l-.567-1.24-1.24-.566c-.047-.024-.14-.19-.283-.496a.63.63 0 01.071-.283.464.464 0 01.213-.213l1.24-.566.566-1.24c.024-.047.189-.142.496-.284a.63.63 0 01.283.071.463.463 0 01.213.213l.566 1.24 1.24.566c.047.024.142.189.283.496a.63.63 0 01-.07.283.464.464 0 01-.213.213l-1.24.567-.566 1.239c-.024.047-.19.142-.496.283zM9.077 28.167a.979.979 0 01-.69-.284 1.2 1.2 0 01-.372-.673l-.248-2.302a3.658 3.658 0 01-1.027-.319 3.652 3.652 0 01-.921-.601l-1.913.814a.867.867 0 01-.726.035 1.194 1.194 0 01-.584-.46L.47 20.942a1.031 1.031 0 01-.16-.797c.06-.272.219-.49.479-.655l1.841-1.205a3.828 3.828 0 01-.177-1.062c0-.307.06-.661.177-1.063L.79 14.956a1.017 1.017 0 01-.478-.655 1.031 1.031 0 01.159-.797l2.125-3.435c.142-.213.336-.366.584-.46a.867.867 0 01.726.035l1.913.814c.26-.236.566-.437.92-.602a3.66 3.66 0 011.028-.319l.248-2.302a1.2 1.2 0 01.372-.673.98.98 0 01.69-.283h4.038c.26 0 .49.095.69.283.201.19.325.414.372.673l.248 2.302c.33.048.673.154 1.027.32.354.165.661.365.921.601l1.912-.814a.867.867 0 01.727-.036c.247.095.442.248.584.46l2.125 3.436c.165.26.218.526.16.797-.06.271-.22.49-.479.655l-1.841 1.204c.117.402.177.756.177 1.063 0 .307-.06.661-.177 1.062l1.841 1.204c.26.166.42.384.478.656.06.271.006.537-.16.797l-2.124 3.435a1.194 1.194 0 01-.584.46.867.867 0 01-.727-.035l-1.912-.814c-.26.236-.567.436-.92.602a3.657 3.657 0 01-1.028.318l-.248 2.302a1.2 1.2 0 01-.372.673.979.979 0 01-.69.284H9.077zm2.019-6.871c1.18 0 2.154-.384 2.922-1.151.767-.768 1.15-1.742 1.15-2.922 0-1.18-.383-2.155-1.15-2.922-.768-.767-1.742-1.151-2.922-1.151-1.18 0-2.155.384-2.922 1.151-.767.767-1.151 1.741-1.151 2.922 0 1.18.384 2.154 1.151 2.922.767.767 1.741 1.15 2.922 1.15zm0-2.125c-.567 0-1.033-.183-1.4-.55-.365-.365-.548-.831-.548-1.398s.183-1.033.549-1.4c.366-.365.832-.548 1.399-.548.567 0 1.033.183 1.399.549.366.366.549.832.549 1.399 0 .567-.183 1.033-.55 1.399-.365.366-.831.549-1.398.549zm-1.204 6.87H12.3l.283-2.691a7.73 7.73 0 001.877-.708 6.276 6.276 0 001.559-1.204l2.302 1.027 1.169-1.842-2.196-1.559c.26-.59.39-1.204.39-1.841 0-.638-.13-1.251-.39-1.842l2.196-1.558-1.17-1.842-2.301 1.027a6.28 6.28 0 00-1.558-1.204 7.734 7.734 0 00-1.878-.708L12.3 8.404H9.892l-.284 2.692a7.733 7.733 0 00-1.877.708 6.279 6.279 0 00-1.558 1.204l-2.302-1.027-1.169 1.842 2.196 1.558a4.52 4.52 0 00-.39 1.842c0 .637.13 1.251.39 1.841l-2.196 1.559 1.169 1.841 2.302-1.026c.472.495.992.897 1.558 1.204a7.729 7.729 0 001.877.708l.284 2.692z" fill="#fff"/></svg>