<svg width="20" height="30" fill="none" xmlns="http://www.w3.org/2000/svg"><path d="M10 21.446c2.456-1.984 4.309-3.89 5.56-5.72 1.252-1.83 1.877-3.536 1.877-5.118 0-1.393-.253-2.573-.761-3.541s-1.133-1.76-1.877-2.373a7.098 7.098 0 00-2.426-1.328c-.874-.272-1.665-.408-2.373-.408-.708 0-1.5.136-2.373.408a7.097 7.097 0 00-2.426 1.328c-.744.614-1.37 1.405-1.877 2.373-.508.968-.761 2.148-.761 3.541 0 1.582.625 3.288 1.877 5.118 1.251 1.83 3.104 3.736 5.56 5.72zm0 2.302a1.91 1.91 0 01-.46-.053 1.009 1.009 0 01-.39-.195c-2.951-2.29-5.141-4.492-6.57-6.605C1.152 14.782.437 12.686.437 10.608c0-1.605.29-3.016.868-4.232.579-1.216 1.328-2.237 2.25-3.063a9.4 9.4 0 013.08-1.86C7.77 1.04 8.89.833 10 .833c1.11 0 2.231.207 3.365.62a9.4 9.4 0 013.08 1.86c.922.826 1.671 1.847 2.25 3.063.578 1.216.867 2.627.867 4.232 0 2.078-.714 4.174-2.142 6.287-1.429 2.113-3.619 4.315-6.57 6.605a1.01 1.01 0 01-.39.195 1.896 1.896 0 01-.46.053zm0-10.873c.685 0 1.27-.242 1.753-.726a2.389 2.389 0 00.726-1.753c0-.685-.242-1.27-.726-1.753A2.389 2.389 0 0010 7.917c-.685 0-1.27.242-1.753.726a2.389 2.389 0 00-.726 1.753c0 .685.242 1.269.726 1.753a2.389 2.389 0 001.753.726zM1.5 29.167c-.307 0-.56-.1-.761-.301-.201-.201-.301-.455-.301-.762s.1-.56.3-.761c.201-.201.455-.301.762-.301h17c.307 0 .56.1.762.3.2.201.3.455.3.762s-.1.56-.3.762c-.201.2-.455.3-.762.3h-17z" fill="#fff"/></svg>