<svg width="28" height="29" fill="none" xmlns="http://www.w3.org/2000/svg"><path d="M11.265 28.254h-8.89c-.567 0-1.063-.212-1.488-.637-.424-.425-.637-.921-.637-1.488V5.517c0-.567.183-1.063.549-1.488.366-.425.679-.637.939-.637h7.154a3.423 3.423 0 011.222-2.037 3.449 3.449 0 012.248-.797c.85 0 1.6.266 2.25.797a3.422 3.422 0 011.221 2.037h7.155c.566 0 1.062.212 1.487.637.425.425.637.921.637 1.488v7.19h-2.124v-7.19h-3.755v2.479a2.05 2.05 0 01-.62 1.505 2.05 2.05 0 01-1.505.62H8.254A2.05 2.05 0 016.75 9.5a2.05 2.05 0 01-.62-1.505v-2.48H2.375V26.13h8.89v2.125zm6.693-3.931l7.721-7.72a.959.959 0 01.744-.302c.283.012.531.124.744.337.212.212.318.466.318.761s-.106.549-.318.761l-8.465 8.465a1.02 1.02 0 01-.744.319 1.02 1.02 0 01-.743-.319l-4.18-4.18a.98.98 0 01-.3-.76c.011-.296.123-.55.336-.762a1.04 1.04 0 01.761-.319c.295 0 .55.106.762.319l3.364 3.4zM13 5.375a1.37 1.37 0 001.01-.407 1.37 1.37 0 00.407-1.01 1.37 1.37 0 00-.408-1.009A1.37 1.37 0 0013 2.542a1.37 1.37 0 00-1.01.407 1.37 1.37 0 00-.407 1.01c0 .4.136.737.408 1.009A1.37 1.37 0 0013 5.375z" fill="#fff"/></svg>