<svg width="26" height="26" fill="none" xmlns="http://www.w3.org/2000/svg"><path d="M8.431 25.75c-2.29 0-4.226-.791-5.808-2.373C1.04 21.795.25 19.86.25 17.57V8.43c0-2.29.791-4.226 2.373-5.808C4.205 1.04 6.14.25 8.43.25h9.138c2.29 0 4.226.791 5.808 2.373C24.96 4.205 25.75 6.14 25.75 8.43v9.138c0 2.29-.791 4.226-2.373 5.808-1.582 1.582-3.518 2.373-5.808 2.373H8.43zm3.117-7.26l8.5-8.5-1.523-1.523-6.977 6.977-3.435-3.436-1.523 1.523 4.958 4.959zM8.43 23.625h9.138c1.676 0 3.105-.59 4.285-1.77 1.18-1.181 1.771-2.61 1.771-4.286V8.43c0-1.676-.59-3.105-1.77-4.285-1.181-1.18-2.61-1.771-4.286-1.771H8.43c-1.676 0-3.105.59-4.285 1.77-1.18 1.181-1.771 2.61-1.771 4.286v9.138c0 1.676.59 3.105 1.77 4.285 1.181 1.18 2.61 1.771 4.286 1.771z" fill="#1D1D1F"/></svg>