<svg width="172" height="27" fill="none" xmlns="http://www.w3.org/2000/svg"><path d="M13.049 2.927c.3-.921 1.603-.921 1.902 0l2.13 6.554a1 1 0 00.95.69h6.891c.969 0 1.372 1.24.588 1.81l-5.575 4.05a1 1 0 00-.363 1.118l2.13 6.553c.299.922-.756 1.688-1.54 1.119l-5.574-4.05a1 1 0 00-1.176 0l-5.575 4.05C7.054 25.39 6 24.624 6.3 23.702l2.129-6.553a1 1 0 00-.363-1.118L2.49 11.98c-.784-.57-.381-1.81.588-1.81h6.89a1 1 0 00.952-.69l2.129-6.554zm36 0c.3-.921 1.603-.921 1.902 0l2.13 6.554a1 1 0 00.95.69h6.891c.969 0 1.372 1.24.588 1.81l-5.575 4.05a1 1 0 00-.363 1.118l2.13 6.553c.299.922-.756 1.688-1.54 1.119l-5.574-4.05a1 1 0 00-1.176 0l-5.575 4.05c-.783.569-1.838-.197-1.538-1.119l2.129-6.553a1 1 0 00-.363-1.118l-5.575-4.05c-.784-.57-.381-1.81.588-1.81h6.89a1 1 0 00.952-.69l2.129-6.554zm36 0c.3-.921 1.603-.921 1.902 0l2.13 6.554a1 1 0 00.95.69h6.891c.969 0 1.372 1.24.588 1.81l-5.575 4.05a1 1 0 00-.363 1.118l2.13 6.553c.299.922-.756 1.688-1.54 1.119l-5.574-4.05a1 1 0 00-1.176 0l-5.575 4.05c-.783.569-1.838-.197-1.538-1.119l2.129-6.553a1 1 0 00-.363-1.118l-5.575-4.05c-.784-.57-.381-1.81.588-1.81h6.89a1 1 0 00.952-.69l2.129-6.554zm36 0c.299-.921 1.603-.921 1.902 0l2.129 6.554a1 1 0 00.951.69h6.891c.969 0 1.372 1.24.588 1.81l-5.575 4.05a1 1 0 00-.363 1.118l2.129 6.553c.3.922-.755 1.688-1.538 1.119l-5.575-4.05a1 1 0 00-1.176 0l-5.575 4.05c-.783.569-1.838-.197-1.538-1.119l2.129-6.553a1 1 0 00-.363-1.118l-5.575-4.05c-.784-.57-.381-1.81.588-1.81h6.891a1 1 0 00.951-.69l2.129-6.554z" fill="#F1A33B"/><path opacity=".25" d="M157.049 2.927c.299-.921 1.603-.921 1.902 0l2.129 6.554a1 1 0 00.951.69h6.891c.969 0 1.372 1.24.588 1.81l-5.575 4.05a1 1 0 00-.363 1.118l2.129 6.553c.3.922-.755 1.688-1.538 1.119l-5.575-4.05a1 1 0 00-1.176 0l-5.575 4.05c-.783.569-1.838-.197-1.538-1.119l2.129-6.553a1 1 0 00-.363-1.118l-5.575-4.05c-.784-.57-.381-1.81.588-1.81h6.891a1 1 0 00.951-.69l2.129-6.554z" fill="#F1A33B"/></svg>